<svg width="161" height="165" viewBox="0 0 161 165" fill="none" xmlns="http://www.w3.org/2000/svg">
<rect x="14.1762" y="157.737" width="146.824" height="1.19498" fill="#F4F4F4"/>
<rect x="14.1762" y="127.863" width="146.824" height="1.19498" fill="#F4F4F4"/>
<rect x="14.1762" y="97.9883" width="146.824" height="1.19498" fill="#F4F4F4"/>
<rect x="14.1762" y="68.1138" width="146.824" height="1.19498" fill="#F4F4F4"/>
<rect x="14.1762" y="38.2393" width="146.824" height="1.19498" fill="#F4F4F4"/>
<rect x="14.1762" y="8.36481" width="146.824" height="1.19498" fill="#F4F4F4"/>
<rect x="37.843" y="28.6794" width="25.3145" height="129.058" fill="#729CA2"/>
<rect x="74.201" y="63.3339" width="25.3145" height="94.4033" fill="#C4DCDF"/>
<rect x="111.501" y="68.1138" width="25.3145" height="89.6234" fill="#FFC539"/>
<path d="M40.8608 17.1568C41.3816 17.1568 41.7944 17.2779 42.0991 17.5201C42.4038 17.7623 42.5561 18.0969 42.5561 18.524C42.5561 18.8052 42.4689 19.0617 42.2944 19.2935C42.1199 19.5253 41.8413 19.7362 41.4584 19.9263C41.922 20.1477 42.2514 20.3808 42.4467 20.6255C42.642 20.8677 42.7397 21.149 42.7397 21.4693C42.7397 21.9433 42.5743 22.3222 42.2436 22.606C41.9129 22.8873 41.4597 23.0279 40.8842 23.0279C40.2749 23.0279 39.8061 22.8951 39.478 22.6295C39.1499 22.3612 38.9858 21.9823 38.9858 21.4927C38.9858 20.8391 39.3842 20.33 40.1811 19.9654C39.8217 19.7623 39.5639 19.5435 39.4077 19.3091C39.2514 19.0722 39.1733 18.8078 39.1733 18.5162C39.1733 18.1021 39.3256 17.7727 39.6303 17.5279C39.9376 17.2805 40.3478 17.1568 40.8608 17.1568ZM39.6264 21.5084C39.6264 21.8209 39.7345 22.0644 39.9506 22.2388C40.1694 22.4133 40.4754 22.5005 40.8686 22.5005C41.2566 22.5005 41.5587 22.4094 41.7749 22.2271C41.991 22.0448 42.0991 21.7948 42.0991 21.4771C42.0991 21.2245 41.9975 21.0005 41.7944 20.8052C41.5913 20.6073 41.2371 20.4159 40.7319 20.231C40.3439 20.3977 40.0626 20.5826 39.8881 20.7857C39.7137 20.9862 39.6264 21.2271 39.6264 21.5084ZM40.853 17.6841C40.5275 17.6841 40.2722 17.7623 40.0874 17.9185C39.9025 18.0748 39.81 18.2831 39.81 18.5435C39.81 18.7831 39.8868 18.9888 40.0405 19.1607C40.1941 19.3326 40.478 19.5045 40.892 19.6763C41.2644 19.5201 41.5275 19.3521 41.6811 19.1724C41.8374 18.9927 41.9155 18.7831 41.9155 18.5435C41.9155 18.2805 41.8204 18.0722 41.6303 17.9185C41.4428 17.7623 41.1837 17.6841 40.853 17.6841ZM43.6147 20.5084C43.6147 19.386 43.8321 18.5474 44.267 17.9927C44.7045 17.4354 45.3504 17.1568 46.2045 17.1568C46.4988 17.1568 46.7306 17.1815 46.8999 17.231V17.7896C46.6993 17.7245 46.4702 17.692 46.2124 17.692C45.6004 17.692 45.1329 17.8834 44.81 18.2662C44.4871 18.6464 44.31 19.2453 44.2788 20.063H44.3256C44.6121 19.6151 45.0652 19.3912 45.685 19.3912C46.198 19.3912 46.6017 19.5461 46.8959 19.856C47.1928 20.1659 47.3413 20.5865 47.3413 21.1177C47.3413 21.7115 47.1785 22.1789 46.853 22.5201C46.5301 22.8586 46.0926 23.0279 45.5405 23.0279C44.9493 23.0279 44.4806 22.8065 44.1342 22.3638C43.7879 21.9185 43.6147 21.3 43.6147 20.5084ZM45.5327 22.4771C45.9025 22.4771 46.1889 22.3612 46.392 22.1295C46.5978 21.8951 46.7006 21.5578 46.7006 21.1177C46.7006 20.7401 46.6056 20.4433 46.4155 20.2271C46.2254 20.011 45.9415 19.9029 45.5639 19.9029C45.3295 19.9029 45.1147 19.9511 44.9194 20.0474C44.7241 20.1438 44.5678 20.2766 44.4506 20.4459C44.336 20.6151 44.2788 20.7909 44.2788 20.9732C44.2788 21.2414 44.3308 21.4914 44.435 21.7232C44.5392 21.955 44.6863 22.1386 44.8764 22.274C45.0691 22.4094 45.2879 22.4771 45.5327 22.4771ZM49.103 22.0201L49.1616 22.1099C49.0939 22.3703 48.9962 22.6724 48.8686 23.0162C48.741 23.3625 48.6082 23.6841 48.4702 23.981H47.9819C48.0522 23.7102 48.129 23.3755 48.2124 22.9771C48.2983 22.5787 48.3582 22.2597 48.392 22.0201H49.103ZM51.8725 19.4615C52.4741 19.4615 52.9467 19.6112 53.2905 19.9107C53.6368 20.2076 53.81 20.6151 53.81 21.1334C53.81 21.7245 53.6212 22.188 53.2436 22.524C52.8686 22.8599 52.3504 23.0279 51.6889 23.0279C51.0457 23.0279 50.5548 22.925 50.2163 22.7193V22.0943C50.3985 22.2115 50.6251 22.3039 50.8959 22.3716C51.1668 22.4367 51.4337 22.4693 51.6967 22.4693C52.1551 22.4693 52.5105 22.3612 52.7631 22.1451C53.0183 21.9289 53.1459 21.6164 53.1459 21.2076C53.1459 20.4107 52.6577 20.0123 51.6811 20.0123C51.4337 20.0123 51.103 20.05 50.6889 20.1255L50.353 19.9107L50.5678 17.2388H53.4077V17.8365H51.1225L50.978 19.5513C51.2775 19.4914 51.5756 19.4615 51.8725 19.4615ZM58.4506 20.0865C58.4506 21.0735 58.2944 21.8104 57.9819 22.2974C57.672 22.7844 57.1967 23.0279 56.5561 23.0279C55.9415 23.0279 55.4741 22.7792 55.1538 22.2818C54.8334 21.7818 54.6733 21.05 54.6733 20.0865C54.6733 19.0917 54.8282 18.3534 55.1381 17.8716C55.448 17.3899 55.9207 17.149 56.5561 17.149C57.1759 17.149 57.6459 17.4003 57.9663 17.9029C58.2892 18.4055 58.4506 19.1334 58.4506 20.0865ZM55.3295 20.0865C55.3295 20.9172 55.4272 21.5227 55.6225 21.9029C55.8178 22.2805 56.129 22.4693 56.5561 22.4693C56.9884 22.4693 57.3009 22.2779 57.4936 21.8951C57.6889 21.5097 57.7866 20.9068 57.7866 20.0865C57.7866 19.2662 57.6889 18.6659 57.4936 18.2857C57.3009 17.9029 56.9884 17.7115 56.5561 17.7115C56.129 17.7115 55.8178 17.9003 55.6225 18.2779C55.4272 18.6529 55.3295 19.2558 55.3295 20.0865ZM63.0288 20.0865C63.0288 21.0735 62.8725 21.8104 62.56 22.2974C62.2501 22.7844 61.7749 23.0279 61.1342 23.0279C60.5196 23.0279 60.0522 22.7792 59.7319 22.2818C59.4116 21.7818 59.2514 21.05 59.2514 20.0865C59.2514 19.0917 59.4064 18.3534 59.7163 17.8716C60.0262 17.3899 60.4988 17.149 61.1342 17.149C61.754 17.149 62.2241 17.4003 62.5444 17.9029C62.8673 18.4055 63.0288 19.1334 63.0288 20.0865ZM59.9077 20.0865C59.9077 20.9172 60.0053 21.5227 60.2006 21.9029C60.3959 22.2805 60.7071 22.4693 61.1342 22.4693C61.5665 22.4693 61.879 22.2779 62.0717 21.8951C62.267 21.5097 62.3647 20.9068 62.3647 20.0865C62.3647 19.2662 62.267 18.6659 62.0717 18.2857C61.879 17.9029 61.5665 17.7115 61.1342 17.7115C60.7071 17.7115 60.3959 17.9003 60.2006 18.2779C60.0053 18.6529 59.9077 19.2558 59.9077 20.0865Z" fill="black"/>
<path d="M75.3956 55.1628C75.3956 54.0404 75.613 53.2019 76.0479 52.6472C76.4854 52.0899 77.1313 51.8113 77.9854 51.8113C78.2797 51.8113 78.5115 51.836 78.6807 51.8855V52.4441C78.4802 52.379 78.251 52.3464 77.9932 52.3464C77.3813 52.3464 76.9138 52.5378 76.5909 52.9207C76.268 53.3009 76.0909 53.8998 76.0596 54.7175H76.1065C76.393 54.2696 76.8461 54.0457 77.4659 54.0457C77.9789 54.0457 78.3826 54.2006 78.6768 54.5105C78.9737 54.8204 79.1221 55.241 79.1221 55.7722C79.1221 56.366 78.9594 56.8334 78.6339 57.1746C78.3109 57.5131 77.8734 57.6824 77.3214 57.6824C76.7302 57.6824 76.2615 57.461 75.9151 57.0183C75.5688 56.573 75.3956 55.9545 75.3956 55.1628ZM77.3135 57.1316C77.6833 57.1316 77.9698 57.0157 78.1729 56.7839C78.3787 56.5496 78.4815 56.2123 78.4815 55.7722C78.4815 55.3946 78.3865 55.0977 78.1964 54.8816C78.0063 54.6654 77.7224 54.5574 77.3448 54.5574C77.1104 54.5574 76.8956 54.6056 76.7003 54.7019C76.505 54.7983 76.3487 54.9311 76.2315 55.1003C76.1169 55.2696 76.0596 55.4454 76.0596 55.6277C76.0596 55.8959 76.1117 56.1459 76.2159 56.3777C76.3201 56.6095 76.4672 56.7931 76.6573 56.9285C76.85 57.0639 77.0688 57.1316 77.3135 57.1316ZM83.6612 57.6042H79.9073V57.0457L81.4112 55.5339C81.8695 55.0704 82.1716 54.7397 82.3175 54.5417C82.4633 54.3438 82.5727 54.1511 82.6456 53.9636C82.7185 53.7761 82.755 53.5743 82.755 53.3582C82.755 53.0535 82.6625 52.8126 82.4776 52.6355C82.2927 52.4558 82.0362 52.366 81.7081 52.366C81.4711 52.366 81.2458 52.405 81.0323 52.4832C80.8214 52.5613 80.5857 52.7032 80.3253 52.9089L79.9815 52.4675C80.5076 52.03 81.0805 51.8113 81.7003 51.8113C82.2367 51.8113 82.6573 51.9493 82.962 52.2253C83.2667 52.4988 83.419 52.8673 83.419 53.3308C83.419 53.6928 83.3175 54.0509 83.1143 54.405C82.9112 54.7592 82.531 55.2071 81.9737 55.7488L80.7237 56.9714V57.0027H83.6612V57.6042ZM85.462 56.6746L85.5206 56.7644C85.4529 57.0248 85.3552 57.3269 85.2276 57.6707C85.1 58.017 84.9672 58.3386 84.8292 58.6355H84.3409C84.4112 58.3647 84.488 58.03 84.5714 57.6316C84.6573 57.2332 84.7172 56.9141 84.751 56.6746H85.462ZM90.2315 54.741C90.2315 55.7279 90.0753 56.4649 89.7628 56.9519C89.4529 57.4389 88.9776 57.6824 88.337 57.6824C87.7224 57.6824 87.255 57.4337 86.9346 56.9363C86.6143 56.4363 86.4542 55.7045 86.4542 54.741C86.4542 53.7462 86.6091 53.0079 86.919 52.5261C87.2289 52.0444 87.7016 51.8035 88.337 51.8035C88.9568 51.8035 89.4268 52.0548 89.7471 52.5574C90.0701 53.06 90.2315 53.7878 90.2315 54.741ZM87.1104 54.741C87.1104 55.5717 87.2081 56.1772 87.4034 56.5574C87.5987 56.935 87.9099 57.1238 88.337 57.1238C88.7693 57.1238 89.0818 56.9324 89.2745 56.5496C89.4698 56.1641 89.5675 55.5613 89.5675 54.741C89.5675 53.9207 89.4698 53.3204 89.2745 52.9402C89.0818 52.5574 88.7693 52.366 88.337 52.366C87.9099 52.366 87.5987 52.5548 87.4034 52.9324C87.2081 53.3074 87.1104 53.9102 87.1104 54.741ZM94.8096 54.741C94.8096 55.7279 94.6534 56.4649 94.3409 56.9519C94.031 57.4389 93.5557 57.6824 92.9151 57.6824C92.3005 57.6824 91.8331 57.4337 91.5128 56.9363C91.1925 56.4363 91.0323 55.7045 91.0323 54.741C91.0323 53.7462 91.1872 53.0079 91.4971 52.5261C91.807 52.0444 92.2797 51.8035 92.9151 51.8035C93.5349 51.8035 94.005 52.0548 94.3253 52.5574C94.6482 53.06 94.8096 53.7878 94.8096 54.741ZM91.6885 54.741C91.6885 55.5717 91.7862 56.1772 91.9815 56.5574C92.1768 56.935 92.488 57.1238 92.9151 57.1238C93.3474 57.1238 93.6599 56.9324 93.8526 56.5496C94.0479 56.1641 94.1456 55.5613 94.1456 54.741C94.1456 53.9207 94.0479 53.3204 93.8526 52.9402C93.6599 52.5574 93.3474 52.366 92.9151 52.366C92.488 52.366 92.1768 52.5548 91.9815 52.9324C91.7862 53.3074 91.6885 53.9102 91.6885 54.741ZM99.3878 54.741C99.3878 55.7279 99.2315 56.4649 98.919 56.9519C98.6091 57.4389 98.1339 57.6824 97.4932 57.6824C96.8787 57.6824 96.4112 57.4337 96.0909 56.9363C95.7706 56.4363 95.6104 55.7045 95.6104 54.741C95.6104 53.7462 95.7654 53.0079 96.0753 52.5261C96.3852 52.0444 96.8578 51.8035 97.4932 51.8035C98.113 51.8035 98.5831 52.0548 98.9034 52.5574C99.2263 53.06 99.3878 53.7878 99.3878 54.741ZM96.2667 54.741C96.2667 55.5717 96.3643 56.1772 96.5596 56.5574C96.755 56.935 97.0662 57.1238 97.4932 57.1238C97.9255 57.1238 98.238 56.9324 98.4307 56.5496C98.626 56.1641 98.7237 55.5613 98.7237 54.741C98.7237 53.9207 98.626 53.3204 98.4307 52.9402C98.238 52.5574 97.9255 52.366 97.4932 52.366C97.0662 52.366 96.755 52.5548 96.5596 52.9324C96.3643 53.3074 96.2667 53.9102 96.2667 54.741Z" fill="black"/>
<path d="M112.696 59.9426C112.696 58.8202 112.913 57.9817 113.348 57.427C113.786 56.8697 114.432 56.5911 115.286 56.5911C115.58 56.5911 115.812 56.6158 115.981 56.6653V57.2239C115.781 57.1588 115.551 57.1262 115.294 57.1262C114.682 57.1262 114.214 57.3176 113.891 57.7004C113.568 58.0806 113.391 58.6796 113.36 59.4973H113.407C113.693 59.0494 114.147 58.8254 114.766 58.8254C115.279 58.8254 115.683 58.9804 115.977 59.2903C116.274 59.6002 116.423 60.0208 116.423 60.552C116.423 61.1458 116.26 61.6132 115.934 61.9543C115.611 62.2929 115.174 62.4622 114.622 62.4622C114.031 62.4622 113.562 62.2408 113.216 61.7981C112.869 61.3528 112.696 60.7343 112.696 59.9426ZM114.614 61.9114C114.984 61.9114 115.27 61.7955 115.473 61.5637C115.679 61.3293 115.782 60.9921 115.782 60.552C115.782 60.1744 115.687 59.8775 115.497 59.6614C115.307 59.4452 115.023 59.3372 114.645 59.3372C114.411 59.3372 114.196 59.3853 114.001 59.4817C113.805 59.578 113.649 59.7109 113.532 59.8801C113.417 60.0494 113.36 60.2252 113.36 60.4075C113.36 60.6757 113.412 60.9257 113.516 61.1575C113.62 61.3892 113.768 61.5728 113.958 61.7083C114.15 61.8437 114.369 61.9114 114.614 61.9114ZM120.993 59.5208C120.993 60.5077 120.837 61.2447 120.524 61.7317C120.214 62.2187 119.739 62.4622 119.098 62.4622C118.484 62.4622 118.016 62.2135 117.696 61.7161C117.376 61.2161 117.216 60.4843 117.216 59.5208C117.216 58.526 117.37 57.7877 117.68 57.3059C117.99 56.8241 118.463 56.5833 119.098 56.5833C119.718 56.5833 120.188 56.8346 120.508 57.3372C120.831 57.8398 120.993 58.5676 120.993 59.5208ZM117.872 59.5208C117.872 60.3515 117.969 60.9569 118.165 61.3372C118.36 61.7148 118.671 61.9036 119.098 61.9036C119.531 61.9036 119.843 61.7122 120.036 61.3293C120.231 60.9439 120.329 60.3411 120.329 59.5208C120.329 58.7004 120.231 58.1002 120.036 57.72C119.843 57.3372 119.531 57.1458 119.098 57.1458C118.671 57.1458 118.36 57.3346 118.165 57.7122C117.969 58.0872 117.872 58.69 117.872 59.5208ZM122.762 61.4543L122.821 61.5442C122.753 61.8046 122.656 62.1067 122.528 62.4504C122.4 62.7968 122.268 63.1184 122.13 63.4153H121.641C121.712 63.1444 121.788 62.8098 121.872 62.4114C121.958 62.0129 122.018 61.6939 122.051 61.4543H122.762ZM127.532 59.5208C127.532 60.5077 127.376 61.2447 127.063 61.7317C126.753 62.2187 126.278 62.4622 125.637 62.4622C125.023 62.4622 124.555 62.2135 124.235 61.7161C123.915 61.2161 123.755 60.4843 123.755 59.5208C123.755 58.526 123.91 57.7877 124.219 57.3059C124.529 56.8241 125.002 56.5833 125.637 56.5833C126.257 56.5833 126.727 56.8346 127.048 57.3372C127.37 57.8398 127.532 58.5676 127.532 59.5208ZM124.411 59.5208C124.411 60.3515 124.508 60.9569 124.704 61.3372C124.899 61.7148 125.21 61.9036 125.637 61.9036C126.07 61.9036 126.382 61.7122 126.575 61.3293C126.77 60.9439 126.868 60.3411 126.868 59.5208C126.868 58.7004 126.77 58.1002 126.575 57.72C126.382 57.3372 126.07 57.1458 125.637 57.1458C125.21 57.1458 124.899 57.3346 124.704 57.7122C124.508 58.0872 124.411 58.69 124.411 59.5208ZM132.11 59.5208C132.11 60.5077 131.954 61.2447 131.641 61.7317C131.331 62.2187 130.856 62.4622 130.216 62.4622C129.601 62.4622 129.133 62.2135 128.813 61.7161C128.493 61.2161 128.333 60.4843 128.333 59.5208C128.333 58.526 128.488 57.7877 128.798 57.3059C129.107 56.8241 129.58 56.5833 130.216 56.5833C130.835 56.5833 131.305 56.8346 131.626 57.3372C131.949 57.8398 132.11 58.5676 132.11 59.5208ZM128.989 59.5208C128.989 60.3515 129.087 60.9569 129.282 61.3372C129.477 61.7148 129.788 61.9036 130.216 61.9036C130.648 61.9036 130.96 61.7122 131.153 61.3293C131.348 60.9439 131.446 60.3411 131.446 59.5208C131.446 58.7004 131.348 58.1002 131.153 57.72C130.96 57.3372 130.648 57.1458 130.216 57.1458C129.788 57.1458 129.477 57.3346 129.282 57.7122C129.087 58.0872 128.989 58.69 128.989 59.5208ZM136.688 59.5208C136.688 60.5077 136.532 61.2447 136.219 61.7317C135.91 62.2187 135.434 62.4622 134.794 62.4622C134.179 62.4622 133.712 62.2135 133.391 61.7161C133.071 61.2161 132.911 60.4843 132.911 59.5208C132.911 58.526 133.066 57.7877 133.376 57.3059C133.686 56.8241 134.158 56.5833 134.794 56.5833C135.413 56.5833 135.883 56.8346 136.204 57.3372C136.527 57.8398 136.688 58.5676 136.688 59.5208ZM133.567 59.5208C133.567 60.3515 133.665 60.9569 133.86 61.3372C134.055 61.7148 134.367 61.9036 134.794 61.9036C135.226 61.9036 135.538 61.7122 135.731 61.3293C135.926 60.9439 136.024 60.3411 136.024 59.5208C136.024 58.7004 135.926 58.1002 135.731 57.72C135.538 57.3372 135.226 57.1458 134.794 57.1458C134.367 57.1458 134.055 57.3346 133.86 57.7122C133.665 58.0872 133.567 58.69 133.567 59.5208Z" fill="black"/>
<path d="M7.45591 157.509C7.45591 158.496 7.29966 159.233 6.98716 159.72C6.67727 160.207 6.20201 160.451 5.56138 160.451C4.9468 160.451 4.47935 160.202 4.15904 159.704C3.83872 159.204 3.67857 158.473 3.67857 157.509C3.67857 156.514 3.83352 155.776 4.14341 155.294C4.45331 154.812 4.92596 154.572 5.56138 154.572C6.18117 154.572 6.65122 154.823 6.97154 155.326C7.29445 155.828 7.45591 156.556 7.45591 157.509ZM4.33482 157.509C4.33482 158.34 4.43247 158.945 4.62779 159.326C4.8231 159.703 5.1343 159.892 5.56138 159.892C5.99367 159.892 6.30617 159.701 6.49888 159.318C6.69419 158.932 6.79185 158.329 6.79185 157.509C6.79185 156.689 6.69419 156.089 6.49888 155.708C6.30617 155.326 5.99367 155.134 5.56138 155.134C5.1343 155.134 4.8231 155.323 4.62779 155.701C4.43247 156.076 4.33482 156.678 4.33482 157.509Z" fill="#C8C8C8"/>
<path d="M7.42466 130.498H3.67076V129.939L5.17466 128.428C5.63299 127.964 5.93508 127.633 6.08091 127.435C6.22674 127.237 6.33612 127.045 6.40904 126.857C6.48195 126.67 6.51841 126.468 6.51841 126.252C6.51841 125.947 6.42596 125.706 6.24107 125.529C6.05617 125.349 5.79966 125.26 5.47154 125.26C5.23456 125.26 5.0093 125.299 4.79576 125.377C4.58482 125.455 4.34914 125.597 4.08872 125.803L3.74497 125.361C4.27102 124.924 4.84393 124.705 5.46372 124.705C6.00018 124.705 6.42076 124.843 6.72544 125.119C7.03013 125.392 7.18247 125.761 7.18247 126.224C7.18247 126.586 7.08091 126.945 6.87779 127.299C6.67466 127.653 6.29445 128.101 5.73716 128.642L4.48716 129.865V129.896H7.42466V130.498Z" fill="#C8C8C8"/>
<path d="M7.69419 99.311H6.84654V100.623H6.22544V99.311H3.4481V98.7446L6.15904 94.8813H6.84654V98.7211H7.69419V99.311ZM6.22544 98.7211V96.8227C6.22544 96.4503 6.23846 96.0297 6.26451 95.561H6.23326C6.10826 95.811 5.99107 96.018 5.88169 96.1821L4.09654 98.7211H6.22544Z" fill="#C8C8C8"/>
<path d="M3.73716 68.3076C3.73716 67.1852 3.95461 66.3466 4.38951 65.7919C4.82701 65.2347 5.47284 64.956 6.32701 64.956C6.62128 64.956 6.85305 64.9807 7.02232 65.0302V65.5888C6.8218 65.5237 6.59263 65.4912 6.33482 65.4912C5.72284 65.4912 5.25539 65.6826 4.93247 66.0654C4.60956 66.4456 4.43247 67.0446 4.40122 67.8623H4.4481C4.73456 67.4143 5.18768 67.1904 5.80747 67.1904C6.32049 67.1904 6.72414 67.3453 7.01841 67.6552C7.31529 67.9651 7.46372 68.3857 7.46372 68.9169C7.46372 69.5107 7.30096 69.9781 6.97544 70.3193C6.65253 70.6578 6.21503 70.8271 5.66294 70.8271C5.0718 70.8271 4.60305 70.6057 4.25669 70.163C3.91034 69.7177 3.73716 69.0992 3.73716 68.3076ZM5.65513 70.2763C6.02492 70.2763 6.31138 70.1604 6.51451 69.9287C6.72023 69.6943 6.8231 69.3571 6.8231 68.9169C6.8231 68.5393 6.72805 68.2425 6.53794 68.0263C6.34784 67.8102 6.06398 67.7021 5.68638 67.7021C5.45201 67.7021 5.23716 67.7503 5.04185 67.8466C4.84654 67.943 4.69029 68.0758 4.5731 68.2451C4.45852 68.4143 4.40122 68.5901 4.40122 68.7724C4.40122 69.0406 4.45331 69.2906 4.55747 69.5224C4.66164 69.7542 4.80878 69.9378 4.99888 70.0732C5.19159 70.2086 5.41034 70.2763 5.65513 70.2763Z" fill="#C8C8C8"/>
<path d="M5.56138 35.0815C6.08221 35.0815 6.49497 35.2026 6.79966 35.4447C7.10435 35.6869 7.25669 36.0216 7.25669 36.4487C7.25669 36.7299 7.16945 36.9864 6.99497 37.2182C6.82049 37.45 6.54185 37.6609 6.15904 37.851C6.62258 38.0724 6.95201 38.3054 7.14732 38.5502C7.34263 38.7924 7.44029 39.0737 7.44029 39.394C7.44029 39.8679 7.27492 40.2468 6.94419 40.5307C6.61346 40.8119 6.16034 40.9526 5.58482 40.9526C4.97544 40.9526 4.50669 40.8197 4.17857 40.5541C3.85044 40.2859 3.68638 39.907 3.68638 39.4174C3.68638 38.7638 4.08482 38.2546 4.88169 37.8901C4.52232 37.6869 4.26451 37.4682 4.10826 37.2338C3.95201 36.9968 3.87388 36.7325 3.87388 36.4408C3.87388 36.0268 4.02622 35.6974 4.33091 35.4526C4.6382 35.2052 5.04836 35.0815 5.56138 35.0815ZM4.32701 39.433C4.32701 39.7455 4.43508 39.989 4.65122 40.1635C4.86997 40.338 5.17596 40.4252 5.56919 40.4252C5.95721 40.4252 6.2593 40.3341 6.47544 40.1518C6.69159 39.9695 6.79966 39.7195 6.79966 39.4018C6.79966 39.1492 6.6981 38.9252 6.49497 38.7299C6.29185 38.532 5.93768 38.3406 5.43247 38.1557C5.04445 38.3224 4.7632 38.5072 4.58872 38.7104C4.41424 38.9109 4.32701 39.1518 4.32701 39.433ZM5.55357 35.6088C5.22805 35.6088 4.97284 35.6869 4.78794 35.8432C4.60305 35.9994 4.5106 36.2078 4.5106 36.4682C4.5106 36.7078 4.58742 36.9135 4.74107 37.0854C4.89471 37.2572 5.17857 37.4291 5.59263 37.601C5.96503 37.4447 6.22805 37.2768 6.38169 37.0971C6.53794 36.9174 6.61607 36.7078 6.61607 36.4682C6.61607 36.2052 6.52102 35.9968 6.33091 35.8432C6.14341 35.6869 5.8843 35.6088 5.55357 35.6088Z" fill="#C8C8C8"/>
<path d="M3.78404 11H3.15122V6.92969C3.15122 6.59115 3.16164 6.27083 3.18247 5.96875C3.12779 6.02344 3.06659 6.08073 2.99888 6.14062C2.93117 6.20052 2.62128 6.45443 2.06919 6.90234L1.72544 6.45703L3.23716 5.28906H3.78404V11ZM9.74497 8.13672C9.74497 9.1237 9.58872 9.86068 9.27622 10.3477C8.96633 10.8346 8.49107 11.0781 7.85044 11.0781C7.23586 11.0781 6.76841 10.8294 6.4481 10.332C6.12779 9.83203 5.96763 9.10026 5.96763 8.13672C5.96763 7.14193 6.12258 6.40365 6.43247 5.92188C6.74237 5.4401 7.21503 5.19922 7.85044 5.19922C8.47023 5.19922 8.94029 5.45052 9.2606 5.95312C9.58352 6.45573 9.74497 7.18359 9.74497 8.13672ZM6.62388 8.13672C6.62388 8.96745 6.72154 9.57292 6.91685 9.95312C7.11216 10.3307 7.42336 10.5195 7.85044 10.5195C8.28273 10.5195 8.59523 10.3281 8.78794 9.94531C8.98326 9.5599 9.08091 8.95703 9.08091 8.13672C9.08091 7.31641 8.98326 6.71615 8.78794 6.33594C8.59523 5.95312 8.28273 5.76172 7.85044 5.76172C7.42336 5.76172 7.11216 5.95052 6.91685 6.32812C6.72154 6.70312 6.62388 7.30599 6.62388 8.13672Z" fill="#C8C8C8"/>
</svg>
