<svg width="27" height="33" viewBox="0 0 27 33" fill="none" xmlns="http://www.w3.org/2000/svg">
<path d="M0.0960014 27.3268L2.41526 23.4632C3.48443 21.6799 4.05008 19.6388 4.05008 17.5585V14.1741C4.05008 8.96462 8.29031 4.72439 13.4998 4.72439C18.7093 4.72439 22.9495 8.96462 22.9495 14.1741V17.5585C22.9495 19.6388 23.5152 21.6799 24.5843 23.4632L26.9036 27.3268C27.0291 27.5347 27.0319 27.7953 26.913 28.0059C26.7928 28.2178 26.5674 28.3488 26.3245 28.3488H0.675199C0.432206 28.3488 0.20674 28.2178 0.0866354 28.0059C-0.0322034 27.7952 -0.0295451 27.5347 0.0960014 27.3268ZM25.1324 26.9988L23.4274 24.1571C22.2313 22.1645 21.5996 19.8831 21.5996 17.5585V14.1741C21.5996 9.70708 17.9668 6.07433 13.4998 6.07433C9.03277 6.07433 5.40002 9.70708 5.40002 14.1741V17.5585C5.40002 19.8831 4.76824 22.1645 3.57352 24.1571L1.86719 26.9988H25.1324Z" fill="black"/>
<path d="M13.4998 -0.000610352C14.9889 -0.000610352 16.1998 1.21031 16.1998 2.69933V5.39928C16.1998 5.77181 15.8974 6.07422 15.5248 6.07422C15.1522 6.07422 14.8498 5.77181 14.8498 5.39922V2.69933C14.8498 1.95416 14.245 1.34939 13.4998 1.34939C12.7547 1.34939 12.1499 1.95416 12.1499 2.69933V5.39928C12.1499 5.77181 11.8475 6.07422 11.4749 6.07422C11.1023 6.07422 10.7999 5.77181 10.7999 5.39922V2.69933C10.7999 1.21031 12.0108 -0.000610352 13.4998 -0.000610352Z" fill="black"/>
<path d="M10.579 27.332C10.7694 27.0107 11.1811 26.9054 11.5037 27.0903C11.8264 27.2793 11.9344 27.6937 11.7454 28.015C11.5699 28.3134 11.4741 28.6711 11.4741 29.0234C11.4741 30.1399 12.3826 31.0484 13.499 31.0484C14.6155 31.0484 15.524 30.1399 15.524 29.0234C15.524 28.6711 15.4281 28.3134 15.2526 28.015C15.065 27.6924 15.1729 27.2793 15.4943 27.0903C15.8196 26.9053 16.23 27.0106 16.419 27.332C16.7173 27.8423 16.8753 28.4268 16.8753 29.0235C16.8752 30.8851 15.362 32.3984 13.5003 32.3984C11.6387 32.3984 10.1255 30.8851 10.1227 29.0235C10.1227 28.4268 10.2807 27.8423 10.579 27.332Z" fill="black"/>
<circle cx="22" cy="8" r="5" fill="#FF6660"/>
</svg>
