<svg width="223" height="154" viewBox="0 0 223 154" fill="none" xmlns="http://www.w3.org/2000/svg">
<path d="M0 17.9607H212.713C218.235 17.9607 222.713 22.4378 222.713 27.9607V143.564C222.713 149.087 218.235 153.564 212.713 153.564H10C4.47716 153.564 0 149.087 0 143.564V17.9607Z" fill="white"/>
<path d="M0 10C0 4.47715 4.47715 0 10 0L71.3098 0C74.8377 0 78.1046 1.85888 79.9067 4.89173L88.5226 19.3917C92.4835 26.0576 87.6797 34.5 79.9258 34.5H10C4.47715 34.5 0 30.0228 0 24.5V10Z" fill="white"/>
<path d="M61.608 111.718H57.94L57.072 114H55.056L58.892 104.2H59.76C60.3667 104.2 60.7773 104.48 60.992 105.04L64.478 114H62.462L61.608 111.718ZM58.458 110.094H61.09L59.788 106.566H59.774L58.458 110.094ZM67.6145 114.112C66.7839 114.112 66.1119 113.86 65.5985 113.356C65.0945 112.852 64.8425 112.189 64.8425 111.368V109.772C64.8425 109.203 64.9639 108.703 65.2065 108.274C65.4492 107.835 65.7899 107.499 66.2285 107.266C66.6672 107.023 67.1759 106.902 67.7545 106.902H68.5245C68.7952 106.902 69.0705 106.963 69.3505 107.084C69.6305 107.196 69.8639 107.35 70.0505 107.546V104.2H71.9545V114H70.1905V113.076C70.0039 113.384 69.7519 113.636 69.4345 113.832C69.1172 114.019 68.7859 114.112 68.4405 114.112H67.6145ZM68.6505 112.474C69.0332 112.474 69.3505 112.339 69.6025 112.068C69.8639 111.788 70.0132 111.419 70.0505 110.962V109.744C69.9852 109.38 69.8405 109.091 69.6165 108.876C69.4019 108.652 69.1452 108.54 68.8465 108.54H67.9925C67.6192 108.54 67.3159 108.666 67.0825 108.918C66.8585 109.17 66.7465 109.501 66.7465 109.912V111.228C66.7465 111.601 66.8492 111.905 67.0545 112.138C67.2599 112.362 67.5259 112.474 67.8525 112.474H68.6505ZM76.0638 114.112C75.2331 114.112 74.5611 113.86 74.0478 113.356C73.5438 112.852 73.2918 112.189 73.2918 111.368V109.772C73.2918 109.203 73.4131 108.703 73.6558 108.274C73.8984 107.835 74.2391 107.499 74.6778 107.266C75.1164 107.023 75.6251 106.902 76.2038 106.902H76.9738C77.2444 106.902 77.5198 106.963 77.7998 107.084C78.0798 107.196 78.3131 107.35 78.4998 107.546V104.2H80.4038V114H78.6398V113.076C78.4531 113.384 78.2011 113.636 77.8838 113.832C77.5664 114.019 77.2351 114.112 76.8898 114.112H76.0638ZM77.0998 112.474C77.4824 112.474 77.7998 112.339 78.0518 112.068C78.3131 111.788 78.4624 111.419 78.4998 110.962V109.744C78.4344 109.38 78.2898 109.091 78.0658 108.876C77.8511 108.652 77.5944 108.54 77.2958 108.54H76.4418C76.0684 108.54 75.7651 108.666 75.5318 108.918C75.3078 109.17 75.1958 109.501 75.1958 109.912V111.228C75.1958 111.601 75.2984 111.905 75.5038 112.138C75.7091 112.362 75.9751 112.474 76.3018 112.474H77.0998ZM86.1102 104.2H87.8322L92.5362 110.864V104.2H94.4262V114H92.7042L88.0002 107.336V114H86.1102V104.2ZM98.819 114.112C98.231 114.112 97.7083 114.005 97.251 113.79C96.803 113.566 96.453 113.258 96.201 112.866C95.949 112.465 95.823 112.007 95.823 111.494V109.688C95.823 109.137 95.949 108.652 96.201 108.232C96.453 107.812 96.803 107.485 97.251 107.252C97.7083 107.019 98.231 106.902 98.819 106.902H99.939C100.835 106.902 101.554 107.154 102.095 107.658C102.636 108.162 102.907 108.834 102.907 109.674V111.158H97.727V111.494C97.727 111.802 97.825 112.049 98.021 112.236C98.217 112.423 98.483 112.516 98.819 112.516H99.911C100.238 112.516 100.499 112.446 100.695 112.306C100.9 112.157 101.003 111.965 101.003 111.732H102.879C102.879 112.199 102.753 112.614 102.501 112.978C102.249 113.342 101.894 113.622 101.437 113.818C100.989 114.014 100.471 114.112 99.883 114.112H98.819ZM101.031 109.786V109.674C101.031 109.31 100.933 109.021 100.737 108.806C100.541 108.582 100.28 108.47 99.953 108.47H98.819C98.483 108.47 98.2123 108.587 98.007 108.82C97.8017 109.053 97.699 109.361 97.699 109.744V109.786H101.031ZM106.199 114C105.573 114 105.172 113.636 104.995 112.908L103.581 107.014H105.555L106.409 111.452H106.437L107.963 107.182H108.705C108.919 107.182 109.092 107.229 109.223 107.322C109.353 107.415 109.456 107.56 109.531 107.756L110.833 111.452H110.861L111.701 107.014H113.675L112.289 112.908C112.121 113.636 111.719 114 111.085 114H110.217L108.663 109.576L107.053 114H106.199ZM118.772 104.2H123.938C124.508 104.2 125.012 104.312 125.45 104.536C125.889 104.751 126.23 105.063 126.472 105.474C126.715 105.875 126.836 106.337 126.836 106.86V108.162C126.836 108.703 126.71 109.184 126.458 109.604C126.206 110.015 125.852 110.337 125.394 110.57C124.946 110.794 124.424 110.906 123.826 110.906H120.704V114H118.772V104.2ZM123.798 109.226C124.125 109.226 124.391 109.123 124.596 108.918C124.802 108.703 124.904 108.423 124.904 108.078V106.944C124.904 106.617 124.811 106.361 124.624 106.174C124.447 105.978 124.209 105.88 123.91 105.88H120.704V109.226H123.798ZM127.849 107.014H129.613V107.91C129.79 107.639 130.042 107.42 130.369 107.252C130.705 107.075 131.055 106.986 131.419 106.986H132.371V108.638H131.419C130.924 108.638 130.523 108.787 130.215 109.086C129.907 109.385 129.753 109.767 129.753 110.234V114H127.849V107.014ZM135.692 114.112C135.104 114.112 134.581 114 134.124 113.776C133.676 113.543 133.326 113.216 133.074 112.796C132.831 112.376 132.71 111.891 132.71 111.34V109.702C132.71 109.151 132.836 108.666 133.088 108.246C133.34 107.817 133.69 107.485 134.138 107.252C134.595 107.019 135.118 106.902 135.706 106.902H136.966C137.554 106.902 138.072 107.019 138.52 107.252C138.977 107.485 139.332 107.817 139.584 108.246C139.836 108.666 139.962 109.151 139.962 109.702V111.34C139.962 111.891 139.836 112.376 139.584 112.796C139.332 113.216 138.977 113.543 138.52 113.776C138.072 114 137.549 114.112 136.952 114.112H135.692ZM136.924 112.474C137.269 112.474 137.544 112.357 137.75 112.124C137.955 111.881 138.058 111.569 138.058 111.186V109.828C138.058 109.445 137.955 109.137 137.75 108.904C137.544 108.661 137.274 108.54 136.938 108.54H135.734C135.398 108.54 135.127 108.661 134.922 108.904C134.716 109.137 134.614 109.445 134.614 109.828V111.186C134.614 111.569 134.716 111.881 134.922 112.124C135.127 112.357 135.393 112.474 135.72 112.474H136.924ZM142.674 106.356C142.31 106.356 142.016 106.253 141.792 106.048C141.578 105.833 141.47 105.553 141.47 105.208C141.47 104.863 141.578 104.587 141.792 104.382C142.016 104.167 142.31 104.06 142.674 104.06C143.038 104.06 143.328 104.167 143.542 104.382C143.766 104.587 143.878 104.863 143.878 105.208C143.878 105.553 143.766 105.833 143.542 106.048C143.328 106.253 143.038 106.356 142.674 106.356ZM139.874 115.162H140.742C141.078 115.162 141.326 115.05 141.484 114.826C141.643 114.611 141.722 114.275 141.722 113.818V107.014H143.626V113.748C143.626 114.793 143.393 115.559 142.926 116.044C142.46 116.539 141.732 116.786 140.742 116.786H139.874V115.162ZM148.216 114.112C147.628 114.112 147.105 114.005 146.648 113.79C146.2 113.566 145.85 113.258 145.598 112.866C145.346 112.465 145.22 112.007 145.22 111.494V109.688C145.22 109.137 145.346 108.652 145.598 108.232C145.85 107.812 146.2 107.485 146.648 107.252C147.105 107.019 147.628 106.902 148.216 106.902H149.336C150.232 106.902 150.95 107.154 151.492 107.658C152.033 108.162 152.304 108.834 152.304 109.674V111.158H147.124V111.494C147.124 111.802 147.222 112.049 147.418 112.236C147.614 112.423 147.88 112.516 148.216 112.516H149.308C149.634 112.516 149.896 112.446 150.092 112.306C150.297 112.157 150.4 111.965 150.4 111.732H152.276C152.276 112.199 152.15 112.614 151.898 112.978C151.646 113.342 151.291 113.622 150.834 113.818C150.386 114.014 149.868 114.112 149.28 114.112H148.216ZM150.428 109.786V109.674C150.428 109.31 150.33 109.021 150.134 108.806C149.938 108.582 149.676 108.47 149.35 108.47H148.216C147.88 108.47 147.609 108.587 147.404 108.82C147.198 109.053 147.096 109.361 147.096 109.744V109.786H150.428ZM156.295 114.112C155.707 114.112 155.185 113.995 154.727 113.762C154.279 113.529 153.929 113.202 153.677 112.782C153.435 112.362 153.313 111.877 153.313 111.326V109.688C153.313 109.137 153.435 108.652 153.677 108.232C153.929 107.812 154.279 107.485 154.727 107.252C155.175 107.019 155.693 106.902 156.281 106.902H157.387C157.947 106.902 158.442 107.014 158.871 107.238C159.301 107.462 159.632 107.779 159.865 108.19C160.099 108.591 160.215 109.058 160.215 109.59H158.325C158.325 109.273 158.237 109.021 158.059 108.834C157.891 108.638 157.667 108.54 157.387 108.54H156.309C155.983 108.54 155.717 108.661 155.511 108.904C155.315 109.137 155.217 109.445 155.217 109.828V111.186C155.217 111.569 155.32 111.881 155.525 112.124C155.731 112.357 155.997 112.474 156.323 112.474H157.401C157.7 112.474 157.938 112.367 158.115 112.152C158.302 111.937 158.395 111.653 158.395 111.298H160.285C160.285 112.147 160.019 112.829 159.487 113.342C158.965 113.855 158.269 114.112 157.401 114.112H156.295ZM164.425 114C163.603 114 163.001 113.813 162.619 113.44C162.236 113.067 162.045 112.488 162.045 111.704V108.638H160.813V107.014H162.101V104.9H163.949V107.014H165.769V108.638H163.949V111.62C163.949 111.881 163.995 112.073 164.089 112.194C164.191 112.315 164.35 112.376 164.565 112.376H165.769V114H164.425Z" fill="#FF893B"/>
<path fill-rule="evenodd" clip-rule="evenodd" d="M111 93C119.284 93 126 86.2843 126 78C126 69.7157 119.284 63 111 63C102.716 63 96 69.7157 96 78C96 86.2843 102.716 93 111 93Z" stroke="#FF893B" stroke-width="2"/>
<rect x="103.455" y="77.0164" width="15" height="1.875" rx="0.9375" fill="#FF893B"/>
<rect width="15" height="1.875" rx="0.9375" transform="matrix(0 -1 -1 0 111.893 85.4539)" fill="#FF893B"/>
</svg>
