<svg width="223" height="154" viewBox="0 0 223 154" fill="none" xmlns="http://www.w3.org/2000/svg">
<path d="M0 17.9607H212.713C218.235 17.9607 222.713 22.4378 222.713 27.9607V143.564C222.713 149.087 218.235 153.564 212.713 153.564H10C4.47716 153.564 0 149.087 0 143.564V17.9607Z" fill="#DBDDE0"/>
<path d="M0 10C0 4.47715 4.47715 0 10 0L71.3098 0C74.8377 0 78.1046 1.85888 79.9067 4.89173L88.5226 19.3917C92.4835 26.0576 87.6797 34.5 79.9258 34.5H10C4.47715 34.5 0 30.0228 0 24.5V10Z" fill="#DBDDE0"/>
<path d="M119.75 84.75H102.25C100.869 84.75 99.75 85.8693 99.75 87.25V96C99.75 97.3807 100.869 98.5 102.25 98.5H119.75C121.131 98.5 122.25 97.3807 122.25 96V87.25C122.25 85.8693 121.131 84.75 119.75 84.75Z" stroke="#A9A9A9" stroke-width="2" stroke-linecap="round" stroke-linejoin="round"/>
<path d="M104.75 84.75V79.75C104.75 78.0924 105.408 76.5027 106.581 75.3306C107.753 74.1585 109.342 73.5 111 73.5C112.658 73.5 114.247 74.1585 115.419 75.3306C116.592 76.5027 117.25 78.0924 117.25 79.75V84.75" stroke="#A9A9A9" stroke-width="2" stroke-linecap="round" stroke-linejoin="round"/>
</svg>
