<svg width="150" height="150" viewBox="0 0 150 150" fill="none" xmlns="http://www.w3.org/2000/svg">
<mask id="mask0" mask-type="alpha" maskUnits="userSpaceOnUse" x="0" y="0" width="150" height="150">
<circle cx="75" cy="75" r="70" stroke="#FFC539" stroke-width="10"/>
</mask>
<g mask="url(#mask0)">
<path d="M76 16V-9C141.6 -9 158.333 41.3333 158.5 66.5H133L76 16Z" fill="#C4DCDF"/>
<path d="M159 66.5H133.5C133.5 117.7 90.5 133.167 69 134.5V157C141.4 157 159.167 96.6667 159 66.5Z" fill="#729CA2"/>
<path d="M69 156V134.5C41.8 133.3 25.3333 111.333 20.5 100.5L4.5 107.5C21.3 148.7 54.5 157 69 156Z" fill="#4FAAFF"/>
<path d="M22.0002 100L3.00019 108.5C-25.3998 34.5 39.8335 -2.66667 76.0002 -12C76.1669 -2.66667 76.4002 16 76.0002 16C11.6002 16 13.1669 72 22.0002 100Z" fill="#FFC539"/>
</g>
<mask id="mask1" mask-type="alpha" maskUnits="userSpaceOnUse" x="13" y="13" width="124" height="124">
<circle cx="75" cy="75" r="61" stroke="#FFC539" stroke-width="2"/>
</mask>
<g mask="url(#mask1)">
<path d="M30.4802 96L14.5202 103.14C-9.33585 40.98 45.4602 9.76001 75.8402 1.92001C75.9802 9.76001 76.1762 25.44 75.8402 25.44C21.7442 25.44 23.0602 72.48 30.4802 96Z" fill="#FFC539"/>
</g>
<path d="M42.6133 85.6914C42.6133 86.8242 42.1992 87.7578 41.3711 88.4922C40.543 89.2266 39.3477 89.6797 37.7852 89.8516V92.3945H36.2266V89.9219C34.2891 89.8906 32.6992 89.5938 31.457 89.0312V86.5586C32.1289 86.8867 32.9141 87.1641 33.8125 87.3906C34.7109 87.6094 35.5156 87.7227 36.2266 87.7305V83.3477L35.2422 82.9844C33.9609 82.4922 33.0234 81.9062 32.4297 81.2266C31.8438 80.5391 31.5508 79.6914 31.5508 78.6836C31.5508 77.6055 31.9688 76.7188 32.8047 76.0234C33.6484 75.3281 34.7891 74.9062 36.2266 74.7578V72.7891H37.7852V74.7227C39.3711 74.7773 40.875 75.0977 42.2969 75.6836L41.4414 77.8281C40.2148 77.3438 38.9961 77.0547 37.7852 76.9609V81.2266L38.6758 81.5664C40.1602 82.1367 41.1875 82.7383 41.7578 83.3711C42.3281 84.0039 42.6133 84.7773 42.6133 85.6914ZM39.8477 85.8672C39.8477 85.4141 39.6875 85.043 39.3672 84.7539C39.0547 84.457 38.5273 84.1719 37.7852 83.8984V87.6367C39.1602 87.4258 39.8477 86.8359 39.8477 85.8672ZM34.3047 78.6602C34.3047 79.1055 34.4414 79.4766 34.7148 79.7734C34.9961 80.0703 35.5 80.3633 36.2266 80.6523V77.0078C35.6016 77.1016 35.125 77.293 34.7969 77.582C34.4688 77.8711 34.3047 78.2305 34.3047 78.6602ZM56.5352 91H44.9219V88.9141L49.3398 84.4727C50.6445 83.1367 51.5078 82.1914 51.9297 81.6367C52.3594 81.0742 52.6719 80.5469 52.8672 80.0547C53.0625 79.5625 53.1602 79.0352 53.1602 78.4727C53.1602 77.6992 52.9258 77.0898 52.457 76.6445C51.9961 76.1992 51.3555 75.9766 50.5352 75.9766C49.8789 75.9766 49.2422 76.0977 48.625 76.3398C48.0156 76.582 47.3086 77.0195 46.5039 77.6523L45.0156 75.8359C45.9688 75.0312 46.8945 74.4609 47.793 74.125C48.6914 73.7891 49.6484 73.6211 50.6641 73.6211C52.2578 73.6211 53.5352 74.0391 54.4961 74.875C55.457 75.7031 55.9375 76.8203 55.9375 78.2266C55.9375 79 55.7969 79.7344 55.5156 80.4297C55.2422 81.125 54.8164 81.8438 54.2383 82.5859C53.668 83.3203 52.7148 84.3164 51.3789 85.5742L48.4023 88.457V88.5742H56.5352V91ZM70.2461 91H58.6328V88.9141L63.0508 84.4727C64.3555 83.1367 65.2188 82.1914 65.6406 81.6367C66.0703 81.0742 66.3828 80.5469 66.5781 80.0547C66.7734 79.5625 66.8711 79.0352 66.8711 78.4727C66.8711 77.6992 66.6367 77.0898 66.168 76.6445C65.707 76.1992 65.0664 75.9766 64.2461 75.9766C63.5898 75.9766 62.9531 76.0977 62.3359 76.3398C61.7266 76.582 61.0195 77.0195 60.2148 77.6523L58.7266 75.8359C59.6797 75.0312 60.6055 74.4609 61.5039 74.125C62.4023 73.7891 63.3594 73.6211 64.375 73.6211C65.9688 73.6211 67.2461 74.0391 68.207 74.875C69.168 75.7031 69.6484 76.8203 69.6484 78.2266C69.6484 79 69.5078 79.7344 69.2266 80.4297C68.9531 81.125 68.5273 81.8438 67.9492 82.5859C67.3789 83.3203 66.4258 84.3164 65.0898 85.5742L62.1133 88.457V88.5742H70.2461V91ZM76.1172 88.4805C75.7422 89.9336 75.0547 91.8047 74.0547 94.0938H72.0273C72.5664 91.9844 72.9688 90.0234 73.2344 88.2109H75.9414L76.1172 88.4805ZM89.7344 77.8047C89.7344 78.8906 89.418 79.7969 88.7852 80.5234C88.1523 81.2422 87.2617 81.7266 86.1133 81.9766V82.0703C87.4883 82.2422 88.5195 82.6719 89.207 83.3594C89.8945 84.0391 90.2383 84.9453 90.2383 86.0781C90.2383 87.7266 89.6562 89 88.4922 89.8984C87.3281 90.7891 85.6719 91.2344 83.5234 91.2344C81.625 91.2344 80.0234 90.9258 78.7188 90.3086V87.8594C79.4453 88.2188 80.2148 88.4961 81.0273 88.6914C81.8398 88.8867 82.6211 88.9844 83.3711 88.9844C84.6992 88.9844 85.6914 88.7383 86.3477 88.2461C87.0039 87.7539 87.332 86.9922 87.332 85.9609C87.332 85.0469 86.9688 84.375 86.2422 83.9453C85.5156 83.5156 84.375 83.3008 82.8203 83.3008H81.332V81.0625H82.8438C85.5781 81.0625 86.9453 80.1172 86.9453 78.2266C86.9453 77.4922 86.707 76.9258 86.2305 76.5273C85.7539 76.1289 85.0508 75.9297 84.1211 75.9297C83.4727 75.9297 82.8477 76.0234 82.2461 76.2109C81.6445 76.3906 80.9336 76.7461 80.1133 77.2773L78.7656 75.3555C80.3359 74.1992 82.1602 73.6211 84.2383 73.6211C85.9648 73.6211 87.3125 73.9922 88.2812 74.7344C89.25 75.4766 89.7344 76.5 89.7344 77.8047ZM98.2891 80.3008C100.016 80.3008 101.383 80.7578 102.391 81.6719C103.398 82.5859 103.902 83.832 103.902 85.4102C103.902 87.2383 103.328 88.668 102.18 89.6992C101.039 90.7227 99.4141 91.2344 97.3047 91.2344C95.3906 91.2344 93.8867 90.9258 92.793 90.3086V87.8125C93.4258 88.1719 94.1523 88.4492 94.9727 88.6445C95.793 88.8398 96.5547 88.9375 97.2578 88.9375C98.5 88.9375 99.4453 88.6602 100.094 88.1055C100.742 87.5508 101.066 86.7383 101.066 85.668C101.066 83.6211 99.7617 82.5977 97.1523 82.5977C96.7852 82.5977 96.332 82.6367 95.793 82.7148C95.2539 82.7852 94.7812 82.8672 94.375 82.9609L93.1445 82.2344L93.8008 73.8672H102.707V76.3164H96.2266L95.8398 80.5586C96.1133 80.5117 96.4453 80.457 96.8359 80.3945C97.2344 80.332 97.7188 80.3008 98.2891 80.3008ZM117.801 82.4336C117.801 85.4102 117.32 87.6211 116.359 89.0664C115.406 90.5117 113.945 91.2344 111.977 91.2344C110.07 91.2344 108.625 90.4883 107.641 88.9961C106.656 87.5039 106.164 85.3164 106.164 82.4336C106.164 79.4102 106.641 77.1836 107.594 75.7539C108.555 74.3164 110.016 73.5977 111.977 73.5977C113.891 73.5977 115.34 74.3477 116.324 75.8477C117.309 77.3477 117.801 79.543 117.801 82.4336ZM108.953 82.4336C108.953 84.7695 109.191 86.4375 109.668 87.4375C110.152 88.4375 110.922 88.9375 111.977 88.9375C113.031 88.9375 113.801 88.4297 114.285 87.4141C114.777 86.3984 115.023 84.7383 115.023 82.4336C115.023 80.1367 114.777 78.4766 114.285 77.4531C113.801 76.4219 113.031 75.9062 111.977 75.9062C110.922 75.9062 110.152 76.4102 109.668 77.418C109.191 78.4258 108.953 80.0977 108.953 82.4336Z" fill="#4FAAFF"/>
<path d="M47.2295 54.8613H49.2461C50.1934 54.8613 50.8786 55.0029 51.3018 55.2861C51.7249 55.5693 51.9365 56.0169 51.9365 56.6289C51.9365 57.0521 51.8177 57.402 51.5801 57.6787C51.3457 57.9521 51.0023 58.1296 50.5498 58.2109V58.2598C51.6338 58.4453 52.1758 59.015 52.1758 59.9688C52.1758 60.6068 51.9593 61.1048 51.5264 61.4629C51.0967 61.821 50.4945 62 49.7197 62H47.2295V54.8613ZM48.0596 57.918H49.4268C50.0127 57.918 50.4342 57.8268 50.6914 57.6445C50.9486 57.459 51.0771 57.1481 51.0771 56.7119C51.0771 56.3115 50.9339 56.0234 50.6475 55.8477C50.361 55.6686 49.9053 55.5791 49.2803 55.5791H48.0596V57.918ZM48.0596 58.6211V61.292H49.5488C50.125 61.292 50.5579 61.1813 50.8477 60.96C51.1406 60.7354 51.2871 60.3854 51.2871 59.9102C51.2871 59.4674 51.1374 59.1419 50.8379 58.9336C50.5417 58.7253 50.0892 58.6211 49.4805 58.6211H48.0596ZM55.5303 58.4307L57.4346 54.8613H58.333L55.9502 59.2314V62H55.1104V59.2705L52.7324 54.8613H53.6406L55.5303 58.4307ZM61.8291 62H61.0381V56.9121C61.0381 56.4889 61.0511 56.0885 61.0771 55.7109C61.0088 55.7793 60.9323 55.8509 60.8477 55.9258C60.763 56.0007 60.3757 56.318 59.6855 56.8779L59.2559 56.3213L61.1455 54.8613H61.8291V62ZM66.9121 54.7588C67.5632 54.7588 68.0791 54.9102 68.46 55.2129C68.8408 55.5156 69.0312 55.9339 69.0312 56.4678C69.0312 56.8193 68.9222 57.14 68.7041 57.4297C68.486 57.7194 68.1377 57.9831 67.6592 58.2207C68.2386 58.4974 68.6504 58.7887 68.8945 59.0947C69.1387 59.3975 69.2607 59.749 69.2607 60.1494C69.2607 60.7419 69.054 61.2155 68.6406 61.5703C68.2272 61.9219 67.6608 62.0977 66.9414 62.0977C66.1797 62.0977 65.5938 61.9316 65.1836 61.5996C64.7734 61.2643 64.5684 60.7907 64.5684 60.1787C64.5684 59.3617 65.0664 58.7253 66.0625 58.2695C65.6133 58.0156 65.291 57.7422 65.0957 57.4492C64.9004 57.153 64.8027 56.8226 64.8027 56.458C64.8027 55.9404 64.9932 55.5286 65.374 55.2227C65.7581 54.9134 66.2708 54.7588 66.9121 54.7588ZM65.3691 60.1982C65.3691 60.5889 65.5042 60.8932 65.7744 61.1113C66.0479 61.3294 66.4303 61.4385 66.9219 61.4385C67.4069 61.4385 67.7845 61.3245 68.0547 61.0967C68.3249 60.8688 68.46 60.5563 68.46 60.1592C68.46 59.8434 68.333 59.5635 68.0791 59.3193C67.8252 59.0719 67.3825 58.8327 66.751 58.6016C66.266 58.8099 65.9144 59.041 65.6963 59.2949C65.4782 59.5456 65.3691 59.8467 65.3691 60.1982ZM66.9023 55.418C66.4954 55.418 66.1764 55.5156 65.9453 55.7109C65.7142 55.9062 65.5986 56.1667 65.5986 56.4922C65.5986 56.7917 65.6947 57.0488 65.8867 57.2637C66.0788 57.4785 66.4336 57.6934 66.9512 57.9082C67.4167 57.7129 67.7454 57.5029 67.9375 57.2783C68.1328 57.0537 68.2305 56.7917 68.2305 56.4922C68.2305 56.1634 68.1117 55.903 67.874 55.7109C67.6396 55.5156 67.3158 55.418 66.9023 55.418ZM70.1934 59.6904V58.9482H72.5908V59.6904H70.1934ZM73.9873 62V54.8613H74.8174V61.248H77.9668V62H73.9873ZM84.6025 62H83.7725V58.6406H80.0127V62H79.1826V54.8613H80.0127V57.8984H83.7725V54.8613H84.6025V62ZM90.8037 58.4209C90.8037 59.6546 90.6084 60.5758 90.2178 61.1846C89.8304 61.7933 89.2363 62.0977 88.4355 62.0977C87.6673 62.0977 87.083 61.7868 86.6826 61.165C86.2822 60.54 86.082 59.6253 86.082 58.4209C86.082 57.1774 86.2757 56.2546 86.6631 55.6523C87.0505 55.0501 87.6413 54.749 88.4355 54.749C89.2103 54.749 89.7979 55.0632 90.1982 55.6914C90.6019 56.3197 90.8037 57.2295 90.8037 58.4209ZM86.9023 58.4209C86.9023 59.4593 87.0244 60.2161 87.2686 60.6914C87.5127 61.1634 87.9017 61.3994 88.4355 61.3994C88.9759 61.3994 89.3665 61.1602 89.6074 60.6816C89.8516 60.1999 89.9736 59.4463 89.9736 58.4209C89.9736 57.3955 89.8516 56.6452 89.6074 56.1699C89.3665 55.6914 88.9759 55.4521 88.4355 55.4521C87.9017 55.4521 87.5127 55.6882 87.2686 56.1602C87.0244 56.6289 86.9023 57.3825 86.9023 58.4209ZM96.5264 58.4209C96.5264 59.6546 96.3311 60.5758 95.9404 61.1846C95.5531 61.7933 94.959 62.0977 94.1582 62.0977C93.39 62.0977 92.8057 61.7868 92.4053 61.165C92.0049 60.54 91.8047 59.6253 91.8047 58.4209C91.8047 57.1774 91.9984 56.2546 92.3857 55.6523C92.7731 55.0501 93.3639 54.749 94.1582 54.749C94.9329 54.749 95.5205 55.0632 95.9209 55.6914C96.3245 56.3197 96.5264 57.2295 96.5264 58.4209ZM92.625 58.4209C92.625 59.4593 92.7471 60.2161 92.9912 60.6914C93.2354 61.1634 93.6243 61.3994 94.1582 61.3994C94.6986 61.3994 95.0892 61.1602 95.3301 60.6816C95.5742 60.1999 95.6963 59.4463 95.6963 58.4209C95.6963 57.3955 95.5742 56.6452 95.3301 56.1699C95.0892 55.6914 94.6986 55.4521 94.1582 55.4521C93.6243 55.4521 93.2354 55.6882 92.9912 56.1602C92.7471 56.6289 92.625 57.3825 92.625 58.4209ZM101.941 56.541C101.941 56.9967 101.813 57.3695 101.556 57.6592C101.302 57.9489 100.94 58.1426 100.472 58.2402V58.2793C101.045 58.3509 101.469 58.5332 101.746 58.8262C102.023 59.1191 102.161 59.5033 102.161 59.9785C102.161 60.6589 101.925 61.1829 101.453 61.5508C100.981 61.9154 100.311 62.0977 99.4414 62.0977C99.0638 62.0977 98.7171 62.0684 98.4014 62.0098C98.0889 61.9544 97.7845 61.8551 97.4883 61.7119V60.9404C97.7975 61.0934 98.1263 61.2106 98.4746 61.292C98.8262 61.3701 99.1582 61.4092 99.4707 61.4092C100.704 61.4092 101.321 60.9258 101.321 59.959C101.321 59.0931 100.641 58.6602 99.2803 58.6602H98.5771V57.9619H99.29C99.8467 57.9619 100.288 57.8398 100.613 57.5957C100.939 57.3483 101.102 57.0065 101.102 56.5703C101.102 56.222 100.981 55.9486 100.74 55.75C100.503 55.5514 100.179 55.4521 99.7686 55.4521C99.4561 55.4521 99.1615 55.4945 98.8848 55.5791C98.6081 55.6637 98.2923 55.82 97.9375 56.0479L97.5273 55.501C97.8203 55.2699 98.1572 55.0892 98.5381 54.959C98.9222 54.8255 99.3258 54.7588 99.749 54.7588C100.442 54.7588 100.981 54.9183 101.365 55.2373C101.749 55.5531 101.941 55.9876 101.941 56.541Z" fill="black"/>
</svg>
