<svg width="35" height="35" viewBox="0 0 35 35" fill="none" xmlns="http://www.w3.org/2000/svg">
<path fill-rule="evenodd" clip-rule="evenodd" d="M17.5 35C27.165 35 35 27.165 35 17.5C35 7.83502 27.165 0 17.5 0C7.83502 0 0 7.83502 0 17.5C0 27.165 7.83502 35 17.5 35Z" fill="#729CA2"/>
<path fill-rule="evenodd" clip-rule="evenodd" d="M10.572 18.428C10.9191 18.0809 11.4819 18.0809 11.8291 18.428L15.6003 22.1992L23.7712 14.0283C24.1183 13.6811 24.6811 13.6811 25.0283 14.0283C25.3754 14.3754 25.3754 14.9382 25.0283 15.2854L16.8573 23.4564C16.163 24.1506 15.0374 24.1506 14.3431 23.4564L14.3432 23.4563L10.572 19.6851C10.2248 19.338 10.2248 18.7752 10.572 18.428Z" fill="white"/>
</svg>
